<svg height="32" viewBox="0 0 32 32" width="32" xmlns="http://www.w3.org/2000/svg"><path d="m16 6.7c-2.3-1.3-5-2-8-2-1.6 0-3.1.2-4.6.6-.5.1-.9.6-.9 1.1v16.3c0 .4.2.7.5.9.3.2.7.2 1 .1 1.3-.4 2.6-.5 4-.5 2.6 0 5 .7 7 2 2-1.3 4.4-2 7-2 1.4 0 2.7.1 4 .5.3.1.7.1 1-.1.3-.2.5-.5.5-.9v-16.3c0-.5-.4-1-.9-1.1-1.5-.4-3-.6-4.6-.6-3 0-5.7.7-8 2zm0 2.4c1.9-1 4.1-1.5 6.4-1.5 1 0 1.9.1 2.8.2v13.4c-.9-.1-1.9-.2-2.8-.2-2.3 0-4.5.5-6.4 1.4zm-2 12.8c-1.9-.9-4.1-1.4-6.4-1.4-.9 0-1.9.1-2.8.2v-13.4c.9-.1 1.8-.2 2.8-.2 2.3 0 4.5.5 6.4 1.5z" fill="#1e90ff"/></svg>
